<?xml version="1.0" encoding="utf-8" ?><svg xmlns="http://www.w3.org/2000/svg" xmlns:xlink="http://www.w3.org/1999/xlink" width="832" height="1248" viewBox="0 0 832 1248"><path fill="white" d="M0 0L832 0L832 1248L0 1248L0 0Z"/><path fill="#052445" d="M228.958 437.561C232.32 437.875 235.292 439.531 236.118 442.905C237.239 447.484 229.766 450.597 226.529 452.471C218.956 456.855 215.067 461.502 210.097 468.426C219.735 476.777 222.669 482.468 222.476 495.102C248.418 509.063 261.525 533.15 255.623 562.592C261.078 565.737 267.028 570.113 271.439 574.58C282.243 585.728 288.181 600.706 287.95 616.227C287.679 635.029 279.947 648.275 266.937 660.982L267.026 670.305C267.1 691.263 260.385 696.968 240.045 697.027C238.499 702.137 236.025 707.708 234.145 712.793C223.004 742.921 211.656 772.972 200.377 803.047C197.929 809.575 193.051 812.88 187.732 806.561C183.068 795.442 179.444 784.014 175.198 772.766C165.624 747.407 156.959 722.053 147.128 696.76C144.544 696.811 141.959 696.822 139.375 696.793C117.961 696.391 119.41 676.158 119.797 660.97C114.116 655.777 109.824 650.77 106.044 644.005C98.5898 630.528 96.7521 614.655 100.93 599.831C105.847 582.539 115.78 571.189 131.156 562.513C125.203 532.311 139.486 507.955 165.85 493.75C167.152 473.336 178.332 463.161 198.715 463.656C205.491 451.63 215.942 442.329 228.958 437.561Z"/><path fill="#0189D3" d="M164.493 568.149C177.971 570.116 189.699 575.736 198.018 586.785C205.772 596.883 209.169 609.659 207.455 622.274C205.791 633.967 200.5 643.339 191.744 651.162C176.45 651.46 153.23 651.998 138.279 651.291L127.383 651.528C126.201 650.321 125.033 649.1 123.879 647.867C115.057 638.398 110.623 626.666 111.179 613.691C111.815 600.986 117.446 589.046 126.845 580.471C137.468 570.926 150.477 567.398 164.493 568.149Z"/><path fill="white" d="M127.383 651.528C126.201 650.321 125.033 649.1 123.879 647.867C115.057 638.398 110.623 626.666 111.179 613.691C111.815 600.986 117.446 589.046 126.845 580.471C137.468 570.926 150.477 567.398 164.493 568.149C162.362 569.264 159.873 569.597 157.529 570.149C141.82 573.853 130.234 584.638 124.818 599.958C120.781 611.65 121.503 624.46 126.829 635.624C128.393 638.918 138.172 650.829 138.279 651.291L127.383 651.528Z"/><path fill="#0063A1" d="M224.796 568.188C226.02 568.123 227.246 568.099 228.471 568.117C241.394 568.281 253.697 573.684 262.56 583.088C271.356 592.17 276.096 604.427 275.698 617.062C275.263 631.44 269.191 641.61 259.058 651.179C254.15 651.368 248.616 651.283 243.657 651.314L208.883 651.291C215.04 640.461 219.689 631.432 220.142 618.488C220.738 601.444 215.512 587.029 203.938 574.603C211.481 570.557 216.331 568.981 224.796 568.188Z"/><path fill="#00C9D0" d="M169.094 505.746L172.621 511.087C187.096 525.649 206.352 522.476 218.486 506.817C237.719 518.536 247.396 535.052 244.29 558.014C227.387 553.847 208.231 555.905 194.139 566.783C181.571 558.241 168.41 554.291 153.093 556.024C149.71 556.46 145.982 557.359 142.616 558.086C141.618 551.953 141.8 545.686 143.15 539.622C146.772 523.534 155.756 514.211 169.094 505.746Z"/><path fill="white" d="M169.094 505.746L172.621 511.087C158.03 523.71 152.237 536.512 153.093 556.024C149.71 556.46 145.982 557.359 142.616 558.086C141.618 551.953 141.8 545.686 143.15 539.622C146.772 523.534 155.756 514.211 169.094 505.746Z"/><path fill="white" d="M132.172 663.605L254.481 663.612C254.577 669.095 255.437 677.476 253.083 682.191C250.824 684.422 249.439 684.821 246.269 684.841C217.083 685.023 187.893 684.895 158.706 684.973C151.139 684.994 143.435 685.211 135.921 684.363C135.543 684.158 134.527 683.42 134.334 683.136C130.872 678.066 132.045 669.682 132.172 663.605Z"/><path fill="white" d="M193.498 707.048C201.676 712.043 209.7 717.286 217.559 722.769C209.673 728.158 201.711 733.434 193.674 738.596C191.418 737.581 172.901 724.68 169.888 722.628C177.283 717.039 185.633 712.028 193.498 707.048Z"/><path fill="#0189D3" d="M182.465 503.442C173.024 492.618 182.384 474.239 192.762 476.58C193.951 478.045 193.513 478.366 193.426 480.674C198.529 484.514 200.319 485.407 205.47 480.731C211.514 488.467 212.707 497.59 204.188 504.194C200.566 507.042 195.931 508.275 191.372 507.6C188.055 507.13 184.954 505.682 182.465 503.442Z"/><path fill="white" d="M182.465 503.442C173.024 492.618 182.384 474.239 192.762 476.58C193.951 478.045 193.513 478.366 193.426 480.674C188.769 487.238 186.998 490.258 189.101 498.343L182.465 503.442Z"/><path fill="white" d="M193.584 753.018C196.711 754.831 200.637 757.687 203.693 759.779C200.547 768.503 196.874 777.61 193.513 786.3C191.418 783.976 185.035 764.555 183.516 760.154L193.584 753.018Z"/><path fill="white" d="M201.84 697.147C209.358 696.847 219.08 697.072 226.745 697.052L222.94 707.958C222.306 709.608 222.691 709.356 221.468 710.137C217.091 709.309 205.896 700.234 201.84 697.147Z"/><path fill="white" d="M160.394 697.038L185.084 696.962C182.723 698.832 179.912 700.788 177.455 702.585C173.383 705.241 169.206 708.187 165.175 710.943C163.699 706.268 162.105 701.632 160.394 697.038Z"/><path fill="#0189D3" d="M592.841 628.46C601.803 627.246 613.107 628.733 620.86 633.979C636.816 644.777 637.212 673.548 627.091 688.308C622.145 695.521 615.029 698.09 606.573 699.493C585.017 702.394 567.064 694.625 564.058 671.459C562.75 660.777 563.693 648.776 570.447 639.936C576.362 632.195 583.611 629.722 592.841 628.46Z"/><path fill="white" d="M594.971 639.971C606.31 639.204 615.987 642.46 618.683 654.517C621.976 669.24 619.042 683.932 603.183 688.033C597.033 688.398 591.961 688.591 586.41 685.072C575.359 678.066 574.846 658.259 581.225 648.091C584.514 642.849 589.081 641.093 594.971 639.971Z"/><path fill="#0189D3" d="M660.445 647.387C671.154 646.062 684.405 646.646 690.679 656.663C697.742 667.941 696 689.073 683.764 696.442C676.122 701.044 668.518 700.294 660.314 698.496L659.27 698.398C657.846 700.395 658.333 715.529 658.336 719.075L644.823 719.075C645.285 696.307 644.931 672.379 644.905 649.547C650.073 648.747 655.254 648.027 660.445 647.387Z"/><path fill="white" d="M667.64 658.323C685.537 657.907 685.079 681.648 672.644 687.517C667.394 688.345 663.292 686.937 658.273 685.529L658.387 660.083C661.546 659.218 664.424 658.821 667.64 658.323Z"/><path fill="#052445" d="M350.138 628.457C360.074 627.288 369.919 628.9 379.549 631.057L379.479 642.842C366.94 639.765 345.793 636.125 337.263 648.066C330.486 657.555 331.949 678.125 342.699 684.739C350.089 689.285 357.459 688.942 365.468 687.228C365.685 680.213 365.388 673.43 365.814 666.309C366.985 665.112 367.701 665.51 369.829 665.449L378.798 665.453C378.861 675.915 378.822 686.378 378.683 696.839C375.616 697.897 372.461 698.676 369.254 699.167C346.192 702.589 323.014 696.635 319.533 670.126C316.518 647.173 327.008 631.518 350.138 628.457Z"/><path fill="#052445" d="M489.264 647.38C500.516 645.82 518.142 648.971 517.835 663.507C517.713 669.29 519.525 696.396 516.91 699.638C512.869 700.919 508.667 697.508 505.931 694.921C496.385 700.503 486.782 701.362 476.94 696.114C471.116 690.498 470.03 684.06 472.894 676.368C477.625 663.661 497.114 670.576 504.152 667.922C504.816 666.23 504.84 665.699 504.347 663.857C501.617 653.655 482.851 658.883 476.103 660.581L475.926 650.002C481.068 648.709 483.993 648.017 489.264 647.38Z"/><path fill="white" d="M492.419 677.231C496.737 677.282 500.088 677.673 504.343 678.154C504.558 680.249 504.548 683.642 504.607 685.847C501.377 687.427 500.049 687.974 496.62 689.038C483.422 691.88 479.488 679.445 492.419 677.231Z"/><path fill="#052445" d="M409.223 647.316C432.971 645.357 438.082 657.259 436.989 678.234C432.178 678.191 404.865 677.452 402.677 678.888C402.339 691.563 423.787 688.533 431.382 687.628C431.823 687.495 433.128 687.439 433.662 687.398C435.322 689.806 434.66 694.442 434.519 697.616C433.634 697.854 432.74 698.055 431.838 698.219C408.87 702.4 386.19 697.379 388.978 668.523C390.194 655.93 396.862 649.444 409.223 647.316Z"/><path fill="white" d="M413.146 657.666C418.121 657.771 423.081 661.127 424.922 665.722C424.532 670.573 417.034 668.995 413.105 668.902L401.738 668.828C403.909 661.177 405.16 659.14 413.146 657.666Z"/><path fill="#0189D3" d="M720.946 646.758C728.94 645.962 736.105 647.518 743.549 650.251L743.543 661.339C736.928 658.446 722.915 654.455 715.602 659.517C714.657 660.171 714.056 663.316 714.484 664.112C718.535 671.64 732.997 665.242 739.9 671.174C742.503 672.874 744.963 675.554 745.38 678.918C747.108 692.884 740.528 697.918 728.533 700.094C719.304 700.458 713.365 699.195 704.598 696.902L704.683 685.922C711.985 687.994 725.679 692.982 731.805 686.882C732.572 685.001 732.625 684.934 732.323 682.981C729.895 678.744 723.1 679.204 718.351 679.006C703.084 678.368 697.764 666.464 705.373 653.792C708.319 648.884 715.446 647.547 720.946 646.758Z"/><path fill="#052445" d="M530.33 638.113L540.934 638.104C541.242 641.132 541.993 644.126 542.666 647.099L554.656 647.126L554.687 657.626L543.588 657.551C543.658 663.919 543.37 670.356 543.219 676.717C542.96 687.61 546.27 688.824 555.877 688.622L555.766 699.583C528.6 700.184 530.149 696.036 530.21 670.24L530.33 638.113Z"/><path fill="#052445" d="M448.023 628.257L461.383 628.195C460.977 651.705 461.297 676.076 461.21 699.676C457.374 699.861 451.991 699.706 448.044 699.701L448.023 628.257Z"/></svg>